<?xml version="1.0" encoding="UTF-8" standalone="no"?>
<!-- Created with Inkscape (http://www.inkscape.org/) -->

<svg
   width="20mm"
   height="20mm"
   viewBox="0 0 75.590553 75.590552"
   version="1.1"
   id="svg1"
   inkscape:version="1.4.3 (0d15f75042, 2025-12-25)"
   sodipodi:docname="icon.svg"
   inkscape:export-filename="icon.png"
   inkscape:export-xdpi="127"
   inkscape:export-ydpi="127"
   xmlns:inkscape="http://www.inkscape.org/namespaces/inkscape"
   xmlns:sodipodi="http://sodipodi.sourceforge.net/DTD/sodipodi-0.dtd"
   xmlns="http://www.w3.org/2000/svg"
   xmlns:svg="http://www.w3.org/2000/svg">
  <sodipodi:namedview
     id="namedview1"
     pagecolor="#505050"
     bordercolor="#eeeeee"
     borderopacity="1"
     inkscape:showpageshadow="0"
     inkscape:pageopacity="0"
     inkscape:pagecheckerboard="0"
     inkscape:deskcolor="#505050"
     inkscape:document-units="mm"
     showgrid="true"
     inkscape:zoom="5.8507729"
     inkscape:cx="37.003658"
     inkscape:cy="26.577685"
     inkscape:window-width="2560"
     inkscape:window-height="1370"
     inkscape:window-x="0"
     inkscape:window-y="0"
     inkscape:window-maximized="1"
     inkscape:current-layer="layer1">
    <inkscape:grid
       id="grid1"
       units="mm"
       originx="0"
       originy="0"
       spacingx="3.7795275"
       spacingy="3.7795275"
       empcolor="#0099e5"
       empopacity="0.30196078"
       color="#0099e5"
       opacity="0.14901961"
       empspacing="5"
       enabled="true"
       visible="true" />
  </sodipodi:namedview>
  <defs
     id="defs1" />
  <g
     inkscape:label="Layer 1"
     inkscape:groupmode="layer"
     id="layer1">
    <rect
       style="fill:#666666"
       id="rect1"
       width="75.590553"
       height="75.590553"
       x="-1.4431403e-06"
       y="-1.4431403e-06"
       ry="13.415125" />
    <path
       id="path2-7"
       style="fill:#ffcc00;stroke-width:0.510996"
       d="m 32.104777,17.630903 c -9.164661,6.10999 -18.329306,12.22 -27.4939737,18.329977 0,1.222929 0,2.445859 0,3.66879 9.6943227,6.462574 19.3882797,12.92569 29.0828487,19.387899 0,-2.106194 0,-4.212389 0,-6.318583 -7.451698,-4.967895 -14.903378,-9.93581 -22.35507,-14.903711 7.451692,-4.967903 14.903372,-9.935817 22.35507,-14.903711 0,-2.106526 0,-4.213054 0,-6.319581 -0.529628,0.352972 -1.059256,0.705947 -1.588875,1.05892 z" />
    <path
       id="path3-1"
       style="fill:#f9f9f9;stroke-width:0.510996"
       d="m 46.025353,10.558258 c -1.329671,0.02238 -2.653293,0.328029 -3.843622,0.925061 -1.259164,0.630216 -2.362474,1.566932 -3.186986,2.709499 -0.82284,1.142806 -1.364376,2.485337 -1.562509,3.880394 -0.197906,1.394354 -0.05231,2.834629 0.419681,4.162276 0.47223,1.327195 1.271586,2.534645 2.306226,3.491226 1.046442,0.969353 2.335716,1.666801 3.713419,2.034722 1.348029,0.344782 2.77493,0.37601 4.133744,0.06857 1.374926,-0.306859 2.668561,-0.957618 3.742919,-1.868893 1.088085,-0.921586 1.935116,-2.117264 2.466676,-3.439888 0.513107,-1.312384 0.709508,-2.744763 0.563167,-4.147103 -0.152086,-1.382854 -0.631315,-2.727456 -1.399569,-3.88888 -0.77621,-1.175366 -1.841812,-2.155002 -3.074227,-2.837564 -1.234731,-0.677856 -2.632759,-1.05468 -4.042112,-1.082519 -0.07895,-10e-4 -0.157909,-0.01712 -0.236807,-0.0069 z m 0.655713,4.989199 c 1.518543,0.23853 2.828855,1.461076 3.117176,2.978504 0.368367,1.599532 -0.460723,3.364427 -1.91392,4.122353 -1.40413,0.775598 -3.276791,0.522958 -4.42358,-0.600776 -1.172232,-1.095109 -1.511196,-2.953476 -0.79684,-4.391249 0.672444,-1.436116 2.306983,-2.336419 3.880799,-2.119583 0.04553,0.0036 0.09091,0.0071 0.136365,0.01073 z" />
    <path
       id="path4-1"
       style="fill:#ff5555;stroke-width:0.510996"
       d="m 63.987553,8.284971 c -3.971047,7.920112 -6.628066,16.567765 -7.210086,25.433895 -0.595278,8.472661 0.747372,17.03279 3.614675,25.012858 1.090897,3.070695 2.412751,6.054972 3.875854,8.965491 2.04697,0 4.093947,0 6.140934,0 -0.679294,-1.386114 -1.374413,-2.764462 -1.997049,-4.141979 -0.922281,-2.039133 -1.783587,-4.181751 -2.49413,-6.258582 -0.606315,-1.763572 -1.137875,-3.552672 -1.591869,-5.361463 -0.140744,-0.566047 -0.304955,-1.260803 -0.438387,-1.880477 -1.709207,-7.784779 -1.783352,-15.921442 -0.20118,-23.733736 0.232829,-1.161069 0.502409,-2.334411 0.792514,-3.438675 1.063425,-4.095812 2.545,-8.077552 4.340216,-11.907619 0.396771,-0.847722 0.863508,-1.7810962 1.293817,-2.6586909 0.04779,-0.2219763 0.53486,-0.7174067 0.04056,-0.6019018 -1.961813,0 -3.923626,5.3e-6 -5.885438,0 -0.09347,0.1902953 -0.186953,0.3805897 -0.280439,0.5708797 z" />
  </g>
</svg>
